<svg xmlns="http://www.w3.org/2000/svg" viewBox="0 0 500 500"><path d="M419.6,152.1a34.87,34.87,0,0,0-55.49-6.66l-80.6-46.57a34.9,34.9,0,1,0-67,0l-80.63,46.55A34.91,34.91,0,1,0,93.2,199.8a34.9,34.9,0,0,0,9.15,3.66V335.24l114.14,65.9a34.9,34.9,0,1,0,67,0l114-65.89V203.48A34.87,34.87,0,0,0,419.6,152.1ZM224.79,113.24c.35.36.71.72,1.07,1.07l-35.77,61.95,12.24,12,37.91-65.66a34.93,34.93,0,0,0,19.51,0l72.68,126,12.23-12L274.13,114.32c.37-.35.72-.71,1.07-1.07l80.64,46.58A34.83,34.83,0,0,0,381,203.42V322.15H119V203.45a34.84,34.84,0,0,0,25.2-43.66ZM250,376a34.79,34.79,0,0,0-25.21,10.76l-83.16-48H358.29l-83.09,48A34.8,34.8,0,0,0,250,376Z" style="fill:#864f00"/>

<path d=
"M406.7,300.2a34.89,34.89,0,0,0-27.2-3.26l-34.84-60.38-46.57,45.78-108-106.08L120.42,296.93a35,35,0,1,0,14.4,8.25l58.93-102.06L298.09,305.61,341,263.44l24.11,41.77a34.92,34.92,0,1,0,41.59-5Z" style="fill:#ffa11a"/></svg>