<svg xmlns="http://www.w3.org/2000/svg" viewBox="0 0 600 620"><path d="M470.17,135.55a35,35,0,0,0-47.7-12.8,35.48,35.48,0,0,0-7.78,6.15L334.08,82.33a34.9,34.9,0,1,0-67,0l-80.63,46.55a34.92,34.92,0,1,0-33.51,58V318.7l114.14,65.89a35.3,35.3,0,0,0-1.39,9.76,34.9,34.9,0,1,0,68.41-9.77l114-65.88V186.94a34.9,34.9,0,0,0,22.05-51.39ZM275.36,96.69c.35.37.71.73,1.08,1.07l-35.77,62,12.23,12,37.91-65.66a34.93,34.93,0,0,0,9.76,1.39,35.3,35.3,0,0,0,9.76-1.38L383,232l12.23-12L324.71,97.77c.36-.35.72-.7,1.07-1.07l80.64,46.59a34.82,34.82,0,0,0,25.1,43.59V305.61h-262V186.9a34.84,34.84,0,0,0,25.2-43.65Zm25.21,262.76a34.8,34.8,0,0,0-25.21,10.77l-83.16-48H408.87l-83.09,48A34.79,34.79,0,0,0,300.57,359.45Z" style="fill:#864f00"/><path d="M457.27,283.65a35,35,0,0,0-27.2-3.26L395.24,220l-46.58,45.77-108-106.08L171,280.38a34.89,34.89,0,1,0,20.57,16.07,35.27,35.27,0,0,0-6.17-7.82l58.93-102.06L348.67,289.06l42.91-42.17,24.1,41.78a34.92,34.92,0,1,0,41.59-5Z" style="fill:#ffa11a"/><path d="M74.36,482H88.43l19.63,37.27h.63L128.32,482h13.44v73.29H130.43V499.19h-.53l-5.77,11.86-16.07,29.3L92,511.05l-5.78-11.86H85.7v56.07H74.36Z" style="fill:#ffa11a"/><path d="M154.26,528c0-17.43,9.56-28.56,25.1-28.56,16.06,0,24.25,12.07,24.25,27.19v4.31H166.13v1.78c0,8.4,5.14,14.39,14.38,14.39,6.72,0,11.24-3.15,14.39-8.19l6.72,6.61c-4.1,6.62-12.08,11-22.26,11C163.82,556.52,154.26,545.39,154.26,528Zm11.87-5.36v.74h25.41v-1.05c0-8.4-4.62-14-12.18-14C171.48,508.32,166.13,514.2,166.13,522.6Z" style="fill:#ffa11a"/><path d="M215.27,555.26v-54.6h11.44v10.5h.53c1.57-5.57,6.3-10.5,15-10.5h3.05v11h-4.52c-9,0-14.07,3.05-14.07,8.72v34.86Z" style="fill:#ffa11a"/><path d="M250.23,528c0-17.43,9-28.56,24.78-28.56,10.92,0,17.85,5.35,21.1,13.44l-9.44,4.41c-1.58-5-5.46-8.3-11.66-8.3-8.4,0-12.7,5.78-12.7,14.18v9.76c0,8.4,4.3,14.18,12.7,14.18,6.62,0,10.5-3.57,12.81-9l8.72,4.62c-3.57,8.92-11,13.86-21.53,13.86C259.26,556.52,250.23,545.39,250.23,528Z" style="fill:#ffa11a"/><path d="M339.48,546.23h-.42c-2,5.35-6.3,10.29-15.33,10.29-11.23,0-17.85-7.67-17.85-21.11V500.66h11.45v33.28c0,8.3,3.46,12.71,10.5,12.71,5.88,0,11.65-3,11.65-9.45V500.66h11.45v54.6H339.48Z" style="fill:#ffa11a"/><path d="M366.26,555.26v-54.6H377.7v10.5h.53c1.57-5.57,6.29-10.5,15-10.5h3v11h-4.51c-9,0-14.07,3.05-14.07,8.72v34.86Z" style="fill:#ffa11a"/><path d="M404.37,484.91v-1.79c0-3.46,2.1-6,6.82-6s6.72,2.52,6.72,6v1.79c0,3.46-2,6-6.72,6S404.37,488.37,404.37,484.91Zm1.05,15.75h11.44v54.6H405.42Z" style="fill:#ffa11a"/><path d="M465.27,546.23h-.42c-2,5.35-6.3,10.29-15.33,10.29-11.24,0-17.85-7.67-17.85-21.11V500.66h11.44v33.28c0,8.3,3.47,12.71,10.5,12.71,5.88,0,11.66-3,11.66-9.45V500.66h11.44v54.6H465.27Z" style="fill:#ffa11a"/><path d="M487.21,546.23l7.35-6.72c4,4.83,8.93,7.77,15.44,7.77s10-2.73,10-7.35c0-3.47-2.1-6.09-7.77-6.83l-5-.63c-11.13-1.36-18-6.19-18-16.27,0-10.61,8.29-16.8,20.26-16.8,9.87,0,15.44,3.25,20.37,8.71l-7,6.72a17.4,17.4,0,0,0-13.34-6.19c-6.3,0-9.24,2.73-9.24,6.82s2.63,6.09,8.4,7l5,.63c12,1.78,17.33,7,17.33,15.85,0,10.5-8.51,17.54-21.63,17.54C499.08,556.52,492.36,552.63,487.21,546.23Z" style="fill:#ffa11a"/></svg>